<svg width="36" height="30" viewBox="0 0 36 30" fill="none" xmlns="http://www.w3.org/2000/svg">
<circle cx="18" cy="15" r="11" fill="#AFC1D1"/>
<path d="M5 19L0 15L4.91119 11.071L5 19Z" fill="#AFC1D1"/>
<path d="M31 19L36 15L31.0888 11.071L31 19Z" fill="#AFC1D1"/>
<path fill-rule="evenodd" clip-rule="evenodd" d="M29.5356 21C27.3676 25.1598 23.0155 28 18 28C12.9846 28 8.63251 25.1598 6.46446 21H4.24817C6.56284 26.2977 11.8491 30 18 30C24.151 30 29.4372 26.2977 31.7519 21H29.5356ZM6.46446 9C8.63251 4.84022 12.9846 2 18 2C23.0155 2 27.3676 4.84022 29.5356 9H31.7519C29.4372 3.70229 24.151 0 18 0C11.8491 0 6.56284 3.70229 4.24817 9H6.46446Z" fill="#AFC1D1"/>
<path d="M14.2614 21V9.36364H18.8523C19.7311 9.36364 20.4811 9.52083 21.1023 9.83523C21.7273 10.1458 22.2027 10.5871 22.5284 11.1591C22.858 11.7273 23.0227 12.3958 23.0227 13.1648C23.0227 13.9375 22.8561 14.6023 22.5227 15.1591C22.1894 15.7121 21.7064 16.1364 21.0739 16.4318C20.4451 16.7273 19.6837 16.875 18.7898 16.875H15.7159V14.8977H18.392C18.8617 14.8977 19.2519 14.8333 19.5625 14.7045C19.8731 14.5758 20.1042 14.3826 20.2557 14.125C20.411 13.8674 20.4886 13.5473 20.4886 13.1648C20.4886 12.7784 20.411 12.4527 20.2557 12.1875C20.1042 11.9223 19.8712 11.7216 19.5568 11.5852C19.2462 11.4451 18.8542 11.375 18.3807 11.375H16.7216V21H14.2614ZM20.5455 15.7045L23.4375 21H20.7216L17.892 15.7045H20.5455Z" fill="#1C1F2A"/>
</svg>
