<svg width="20" height="20" viewBox="0 0 20 20" fill="none" xmlns="http://www.w3.org/2000/svg">
<g clip-path="url(#clip0_1_210)">
<path d="M19.5 10C19.5 15.2467 15.2467 19.5 10 19.5C4.75329 19.5 0.5 15.2467 0.5 10C0.5 4.75329 4.75329 0.5 10 0.5C15.2467 0.5 19.5 4.75329 19.5 10Z" stroke="#AFC1D1"/>
<path d="M4.56099 13.706V6.28201H6.11499V12.353H9.79299V13.706H4.56099Z" fill="#AFC1D1"/>
<path d="M9.876 13.789H4.478V6.2H6.198V12.271H9.876V13.789ZM4.644 13.623H9.71V12.436H6.032V6.366H4.644V13.623Z" fill="#AFC1D1"/>
<path d="M12.297 9.357C12.61 9.357 12.865 9.329 13.063 9.274C13.26 9.217 13.413 9.144 13.521 9.05C13.629 8.957 13.704 8.849 13.745 8.726C13.786 8.603 13.807 8.475 13.807 8.34C13.807 7.967 13.73 7.685 13.578 7.49C13.425 7.296 13.181 7.199 12.846 7.199C12.562 7.199 12.328 7.305 12.141 7.518C11.954 7.73 11.862 8.03 11.862 8.418H10.509C10.509 8.06 10.567 7.736 10.682 7.445C10.798 7.154 10.962 6.904 11.174 6.696C11.387 6.487 11.64 6.325 11.935 6.209C12.229 6.094 12.552 6.036 12.902 6.036C13.223 6.036 13.523 6.085 13.802 6.182C14.081 6.279 14.325 6.417 14.534 6.596C14.743 6.774 14.907 6.989 15.026 7.239C15.146 7.489 15.205 7.762 15.205 8.061C15.205 8.396 15.132 8.715 14.987 9.017C14.842 9.318 14.624 9.556 14.333 9.726C14.69 9.875 14.965 10.101 15.155 10.403C15.344 10.705 15.44 11.09 15.44 11.56C15.44 11.933 15.377 12.268 15.25 12.566C15.123 12.864 14.944 13.116 14.713 13.32C14.482 13.525 14.206 13.684 13.885 13.795C13.565 13.907 13.21 13.963 12.823 13.963C12.048 13.963 11.448 13.747 11.023 13.315C10.599 12.883 10.386 12.287 10.386 11.526H11.783C11.783 11.958 11.876 12.273 12.062 12.471C12.249 12.668 12.524 12.767 12.89 12.767C13.195 12.767 13.449 12.661 13.65 12.449C13.851 12.237 13.952 11.933 13.952 11.538C13.952 11.106 13.827 10.804 13.577 10.632C13.327 10.461 12.9 10.375 12.297 10.375V9.357Z" fill="#AFC1D1"/>
<path d="M12.823 14.046C12.029 14.046 11.403 13.819 10.964 13.373C10.526 12.927 10.303 12.306 10.303 11.526V11.443H11.866V11.526C11.866 11.934 11.952 12.233 12.122 12.414C12.291 12.594 12.549 12.685 12.89 12.685C13.174 12.685 13.403 12.589 13.59 12.392C13.776 12.197 13.869 11.909 13.869 11.538C13.869 11.137 13.755 10.855 13.53 10.701C13.296 10.54 12.881 10.458 12.297 10.458H12.214V9.274H12.297C12.601 9.274 12.851 9.247 13.04 9.193C13.225 9.141 13.369 9.071 13.467 8.986C13.565 8.902 13.63 8.808 13.666 8.698C13.704 8.585 13.723 8.464 13.723 8.339C13.723 7.987 13.652 7.719 13.512 7.541C13.375 7.367 13.157 7.282 12.845 7.282C12.584 7.282 12.374 7.377 12.203 7.573C12.031 7.769 11.944 8.053 11.944 8.419V8.5H10.425V8.418C10.425 8.051 10.485 7.713 10.604 7.415C10.723 7.115 10.895 6.853 11.114 6.638C11.333 6.423 11.599 6.252 11.902 6.133C12.205 6.014 12.54 5.954 12.9 5.954C13.228 5.954 13.54 6.004 13.827 6.104C14.115 6.204 14.37 6.349 14.586 6.533C14.803 6.719 14.975 6.944 15.099 7.202C15.223 7.462 15.286 7.751 15.286 8.06C15.286 8.406 15.21 8.74 15.06 9.052C14.93 9.322 14.743 9.543 14.502 9.714C14.808 9.868 15.05 10.085 15.223 10.359C15.42 10.673 15.521 11.077 15.521 11.561C15.521 11.942 15.455 12.292 15.324 12.6C15.193 12.908 15.005 13.172 14.766 13.384C14.528 13.595 14.241 13.76 13.911 13.875C13.584 13.988 13.218 14.046 12.823 14.046ZM10.469 11.608C10.484 12.303 10.69 12.858 11.082 13.256C11.489 13.67 12.075 13.88 12.823 13.88C13.2 13.88 13.548 13.824 13.858 13.717C14.167 13.609 14.436 13.454 14.657 13.258C14.878 13.062 15.051 12.818 15.172 12.533C15.294 12.246 15.356 11.919 15.356 11.559C15.356 11.107 15.264 10.732 15.084 10.446C14.905 10.161 14.641 9.944 14.3 9.802L14.147 9.738L14.29 9.654C14.565 9.492 14.774 9.265 14.912 8.98C15.051 8.691 15.121 8.381 15.121 8.06C15.121 7.776 15.064 7.511 14.95 7.274C14.836 7.036 14.678 6.829 14.479 6.659C14.279 6.488 14.042 6.353 13.774 6.261C13.504 6.168 13.211 6.12 12.901 6.12C12.563 6.12 12.248 6.177 11.964 6.288C11.682 6.399 11.435 6.556 11.232 6.756C11.029 6.956 10.87 7.198 10.759 7.476C10.657 7.733 10.601 8.022 10.593 8.335H11.78C11.793 7.967 11.893 7.674 12.079 7.463C12.281 7.233 12.538 7.116 12.846 7.116C13.206 7.116 13.474 7.224 13.643 7.438C13.807 7.646 13.89 7.95 13.89 8.339C13.89 8.482 13.868 8.62 13.825 8.751C13.779 8.888 13.696 9.009 13.576 9.112C13.459 9.213 13.295 9.293 13.086 9.353C12.899 9.405 12.662 9.435 12.38 9.439V10.292C12.962 10.299 13.369 10.388 13.624 10.563C13.896 10.751 14.035 11.078 14.035 11.537C14.035 11.952 13.926 12.278 13.71 12.505C13.493 12.734 13.217 12.85 12.89 12.85C12.502 12.85 12.204 12.742 12.002 12.528C11.814 12.329 11.713 12.02 11.701 11.609H10.469V11.608Z" fill="#AFC1D1"/>
</g>
<defs>
<clipPath id="clip0_1_210">
<rect width="20" height="20" fill="white"/>
</clipPath>
</defs>
</svg>
