<svg width="20" height="22" viewBox="0 0 20 22" fill="none" xmlns="http://www.w3.org/2000/svg">
<g clip-path="url(#clip0_1_246)">
<path d="M19.503 18.628V18.6279L19.504 12.7229V12.7229V12.7228V12.7225L19.504 12.7204L19.504 12.7105L19.5036 12.6694C19.5033 12.6326 19.5025 12.5773 19.5009 12.5052C19.4977 12.3611 19.4912 12.1498 19.4782 11.8844C19.4522 11.3533 19.4 10.607 19.2953 9.74919C19.0848 8.02423 18.6666 5.88698 17.8464 4.14053L17.8464 4.14039C16.7435 1.78992 14.5604 0.5 12.477 0.5C9.54366 0.5 7.11073 2.59409 5.38052 5.17911C3.98551 7.26442 2.6863 10.9605 1.94897 13.3598L19.503 18.628ZM19.503 18.628C19.503 19.2849 19.2447 19.7506 18.8403 20.0645M19.503 18.628L18.8403 20.0645M18.8403 20.0645C18.421 20.39 17.8072 20.579 17.078 20.579M18.8403 20.0645L17.078 20.579M17.078 20.579H2.459M17.078 20.579H2.459M2.459 20.579C1.11207 20.579 0.393457 19.5855 0.513462 18.6952M2.459 20.579L0.513462 18.6952M0.513462 18.6952C0.603163 18.0398 0.914389 16.7289 1.94894 13.3599L0.513462 18.6952Z" stroke="#AFC1D1"/>
<path d="M5.688 15.924V8.52501H7.237V14.576H10.903V15.925H5.688V15.924Z" fill="#AFC1D1"/>
<path d="M10.967 15.989H5.624V8.46001H7.302V14.511H10.968V15.989H10.967ZM5.752 15.859H10.838V14.641H7.172V8.59001H5.752V15.859Z" fill="#AFC1D1"/>
<path d="M11.282 15.924C11.282 15.582 11.309 15.263 11.366 14.966C11.421 14.669 11.528 14.375 11.688 14.085C11.848 13.796 12.073 13.503 12.362 13.205C12.653 12.908 13.034 12.589 13.51 12.247C13.778 12.061 13.998 11.893 14.172 11.745C14.348 11.597 14.486 11.456 14.59 11.321C14.695 11.188 14.77 11.053 14.815 10.921C14.858 10.786 14.881 10.642 14.881 10.486C14.881 10.299 14.854 10.143 14.803 10.018C14.75 9.89101 14.678 9.79101 14.586 9.71701C14.492 9.64301 14.383 9.59001 14.256 9.56101C14.131 9.53201 13.996 9.51601 13.856 9.51601C13.522 9.51601 13.258 9.61101 13.065 9.80001C12.872 9.98901 12.774 10.333 12.774 10.83H11.381C11.381 10.028 11.592 9.40201 12.012 8.95301C12.432 8.50401 13.024 8.28001 13.79 8.28001C14.161 8.28001 14.501 8.32601 14.81 8.41401C15.117 8.50401 15.382 8.63701 15.601 8.81501C15.82 8.99301 15.99 9.21801 16.113 9.49001C16.236 9.76201 16.297 10.078 16.297 10.442C16.297 10.724 16.26 10.98 16.186 11.211C16.112 11.442 15.991 11.668 15.825 11.891C15.657 12.115 15.436 12.341 15.161 12.571C14.888 12.801 14.552 13.058 14.159 13.341C13.876 13.548 13.639 13.774 13.446 14.015C13.253 14.257 13.149 14.474 13.133 14.667H16.321V15.926H11.282V15.924Z" fill="#AFC1D1"/>
<path d="M16.383 15.989H11.217V15.925C11.217 15.581 11.244 15.255 11.301 14.955C11.358 14.652 11.469 14.35 11.631 14.055C11.793 13.762 12.024 13.461 12.315 13.16C12.606 12.863 12.997 12.537 13.473 12.195C13.737 12.011 13.959 11.843 14.131 11.696C14.301 11.552 14.44 11.413 14.539 11.283C14.639 11.156 14.711 11.027 14.752 10.901C14.793 10.775 14.815 10.635 14.815 10.487C14.815 10.31 14.792 10.162 14.743 10.044C14.696 9.928 14.63 9.836 14.546 9.769C14.46 9.702 14.358 9.653 14.243 9.625C14.12 9.598 13.991 9.582 13.856 9.582C13.542 9.582 13.29 9.672 13.11 9.848C12.93 10.024 12.84 10.356 12.84 10.832V10.896H11.317V10.832C11.317 10.018 11.536 9.37 11.963 8.91C12.395 8.449 13.008 8.216 13.789 8.216C14.164 8.216 14.514 8.262 14.826 8.353C15.142 8.444 15.416 8.582 15.64 8.766C15.864 8.95 16.044 9.185 16.169 9.463C16.296 9.741 16.36 10.07 16.36 10.442C16.36 10.73 16.321 10.996 16.245 11.23C16.169 11.467 16.044 11.703 15.872 11.929C15.702 12.156 15.477 12.388 15.2 12.62C14.925 12.85 14.585 13.11 14.192 13.391C13.917 13.594 13.68 13.817 13.493 14.053C13.333 14.253 13.233 14.438 13.204 14.599H16.382V15.989H16.383ZM11.346 15.859H16.254V14.73H13.061L13.067 14.661C13.083 14.455 13.192 14.224 13.393 13.973C13.588 13.728 13.832 13.497 14.118 13.286C14.509 13.007 14.845 12.749 15.118 12.52C15.388 12.293 15.608 12.068 15.77 11.85C15.932 11.635 16.051 11.412 16.124 11.19C16.194 10.967 16.231 10.716 16.231 10.441C16.231 10.087 16.17 9.776 16.053 9.514C15.934 9.254 15.768 9.035 15.559 8.865C15.348 8.692 15.09 8.561 14.789 8.475C14.488 8.388 14.152 8.344 13.789 8.344C13.045 8.344 12.463 8.564 12.059 8.997C11.664 9.42 11.459 10.016 11.448 10.766H12.71C12.72 10.287 12.823 9.946 13.021 9.754C13.224 9.553 13.505 9.451 13.857 9.451C14.002 9.451 14.14 9.467 14.273 9.498C14.408 9.529 14.527 9.586 14.627 9.666C14.729 9.746 14.809 9.856 14.865 9.992C14.918 10.125 14.947 10.292 14.947 10.485C14.947 10.647 14.924 10.8 14.877 10.939C14.83 11.08 14.752 11.221 14.645 11.361C14.538 11.498 14.393 11.642 14.217 11.794C14.041 11.943 13.817 12.113 13.549 12.299C13.08 12.637 12.697 12.957 12.41 13.249C12.127 13.541 11.902 13.832 11.746 14.115C11.59 14.398 11.484 14.687 11.43 14.976C11.377 15.251 11.35 15.548 11.346 15.859Z" fill="#AFC1D1"/>
</g>
<defs>
<clipPath id="clip0_1_246">
<rect width="20.004" height="21.08" fill="white"/>
</clipPath>
</defs>
</svg>
