<svg width="20" height="13" viewBox="0 0 20 13" fill="none" xmlns="http://www.w3.org/2000/svg">
<g clip-path="url(#clip0_1_234)">
<path d="M10.016 12.092C7.37715 12.0918 5.49236 11.476 4.14033 10.5857C2.78752 9.69486 1.93344 8.50622 1.39418 7.30443C0.853307 6.09906 0.632218 4.88636 0.547799 3.96931C0.505717 3.51217 0.497935 3.13228 0.500532 2.86866C0.50183 2.73696 0.505716 2.63457 0.509165 2.56642C0.510889 2.53236 0.512503 2.50687 0.513627 2.49059L0.514898 2.47315L0.515147 2.46998L0.515168 2.46975L0.515182 2.46958L0.515196 2.46941L0.516998 2.44853V2.427C0.516998 1.8078 0.719013 1.33515 1.03582 1.01853C1.35266 0.701878 1.82563 0.5 2.445 0.5H17.554C18.1734 0.5 18.6463 0.701878 18.9632 1.01853C19.28 1.33515 19.482 1.8078 19.482 2.427V2.44929L19.4839 2.47091L19.4839 2.47108L19.484 2.47126L19.484 2.47149L19.4842 2.47465L19.4856 2.4921C19.4867 2.50839 19.4884 2.53388 19.4903 2.56795C19.4939 2.63611 19.4981 2.73851 19.4998 2.87023C19.5032 3.13388 19.4966 3.51381 19.4559 3.97097C19.3743 4.88811 19.157 6.10078 18.62 7.30601C18.0847 8.50763 17.2346 9.6959 15.8853 10.5864C14.5366 11.4764 12.6544 12.092 10.016 12.092ZM10.016 12.092L10.016 12.592L10.016 12.092Z" stroke="#AFC1D1"/>
<path d="M5.56889 9V2.45455H8.15128C8.6456 2.45455 9.06747 2.54297 9.4169 2.71982C9.76847 2.89453 10.0359 3.14276 10.2191 3.46449C10.4045 3.78409 10.4972 4.16016 10.4972 4.59268C10.4972 5.02734 10.4034 5.40128 10.2159 5.71449C10.0284 6.02557 9.75675 6.2642 9.40092 6.4304C9.04723 6.59659 8.61896 6.67969 8.11612 6.67969H6.38707V5.56747H7.8924C8.15661 5.56747 8.37607 5.53125 8.55078 5.45881C8.7255 5.38636 8.85547 5.2777 8.9407 5.13281C9.02805 4.98793 9.07173 4.80788 9.07173 4.59268C9.07173 4.37535 9.02805 4.19212 8.9407 4.04297C8.85547 3.89382 8.72443 3.78089 8.54759 3.70419C8.37287 3.62536 8.15234 3.58594 7.88601 3.58594H6.95277V9H5.56889ZM9.10369 6.02131L10.7305 9H9.20277L7.61115 6.02131H9.10369ZM14.2844 2.45455V9H12.9006V3.76811H12.8622L11.3633 4.70774V3.48047L12.9837 2.45455H14.2844Z" fill="#AFC1D1"/>
</g>
<defs>
<clipPath id="clip0_1_234">
<rect width="20.001" height="12.591" fill="white"/>
</clipPath>
</defs>
</svg>
