<svg width="24" height="25" viewBox="0 0 24 25" fill="none" xmlns="http://www.w3.org/2000/svg">
<path d="M21.5 16V24.5H2.5V16V15.5H2C1.74668 15.5 1.35557 15.4199 1.04215 15.1942C0.754234 14.9869 0.5 14.637 0.5 14V10.5C0.5 10.33 0.55511 10.0639 0.705767 9.85465C0.838069 9.6709 1.06296 9.5 1.5 9.5H22.5C22.7013 9.5 22.9963 9.54286 23.2211 9.65076C23.4343 9.75308 23.5 9.86265 23.5 10V14C23.5 14.637 23.2458 14.9869 22.9578 15.1942C22.6444 15.4199 22.2533 15.5 22 15.5H21.5V16ZM15.9713 0.5L11.5 6.1907L7.02873 0.5H15.9713Z" stroke="#AFC1D1"/>
<path d="M5.25852 21H10.8452V19.4787H7.10369V12.2727H5.25852V21ZM15.2418 21.1193C17.2021 21.1193 18.604 20.0412 18.5998 18.5497C18.604 17.4631 17.9137 16.6875 16.631 16.5256V16.4574C17.6069 16.2827 18.2802 15.5923 18.2759 14.6122C18.2802 13.2358 17.0742 12.1534 15.2674 12.1534C13.4776 12.1534 12.131 13.2017 12.1055 14.7102H13.8739C13.8952 14.0455 14.5046 13.6151 15.2589 13.6151C16.0046 13.6151 16.5032 14.0668 16.4989 14.723C16.5032 15.4091 15.9194 15.8736 15.0799 15.8736H14.266V17.2287H15.0799C16.0685 17.2287 16.6864 17.723 16.6822 18.4261C16.6864 19.1207 16.0898 19.598 15.2461 19.598C14.4322 19.598 13.8228 19.1719 13.7887 18.5327H11.9308C11.9606 20.0582 13.3242 21.1193 15.2418 21.1193Z" fill="#AFC1D1"/>
</svg>
