<svg width="20" height="13" viewBox="0 0 20 13" fill="none" xmlns="http://www.w3.org/2000/svg">
<g clip-path="url(#clip0_1_234)">
<path d="M10.016 12.092C7.37715 12.0918 5.49236 11.476 4.14033 10.5857C2.78752 9.69486 1.93344 8.50622 1.39418 7.30443C0.853307 6.09906 0.632218 4.88636 0.547799 3.96931C0.505717 3.51217 0.497935 3.13228 0.500532 2.86866C0.50183 2.73696 0.505716 2.63457 0.509165 2.56642C0.510889 2.53236 0.512503 2.50687 0.513627 2.49059L0.514898 2.47315L0.515147 2.46998L0.515168 2.46975L0.515182 2.46958L0.515196 2.46941L0.516998 2.44853V2.427C0.516998 1.8078 0.719013 1.33515 1.03582 1.01853C1.35266 0.701878 1.82563 0.5 2.445 0.5H17.554C18.1734 0.5 18.6463 0.701878 18.9632 1.01853C19.28 1.33515 19.482 1.8078 19.482 2.427V2.44929L19.4839 2.47091L19.4839 2.47108L19.484 2.47126L19.484 2.47149L19.4842 2.47465L19.4856 2.4921C19.4867 2.50839 19.4884 2.53388 19.4903 2.56795C19.4939 2.63611 19.4981 2.73851 19.4998 2.87023C19.5032 3.13388 19.4966 3.51381 19.4559 3.97097C19.3743 4.88811 19.157 6.10078 18.62 7.30601C18.0847 8.50763 17.2346 9.6959 15.8853 10.5864C14.5366 11.4764 12.6544 12.092 10.016 12.092ZM10.016 12.092L10.016 12.592L10.016 12.092Z" stroke="#AFC1D1"/>
<path d="M5.872 9.527V2.149H7.417V8.184H11.074V9.527H5.872Z" fill="#AFC1D1"/>
<path d="M11.138 9.593H5.806V2.083H7.482V8.118H11.138V9.593ZM5.937 9.462H11.009V8.249H7.352V2.213H5.937V9.462Z" fill="#AFC1D1"/>
<path d="M12.685 9.527V4.427H11.173V3.426C11.491 3.426 11.759 3.401 11.974 3.348C12.189 3.297 12.365 3.217 12.501 3.11C12.637 3.003 12.741 2.87 12.812 2.71C12.882 2.551 12.929 2.364 12.951 2.149H14.131V9.527H12.685Z" fill="#AFC1D1"/>
<path d="M14.194 9.593H12.62V4.492H11.108V3.362H11.172C11.485 3.362 11.748 3.337 11.957 3.286C12.162 3.237 12.33 3.161 12.461 3.059C12.588 2.958 12.686 2.832 12.752 2.684C12.818 2.532 12.863 2.35 12.885 2.142L12.891 2.083H14.194V9.593ZM12.749 9.462H14.063V2.213H13.008C12.983 2.41 12.938 2.586 12.871 2.735C12.797 2.904 12.685 3.047 12.539 3.16C12.396 3.273 12.209 3.357 11.988 3.412C11.783 3.461 11.531 3.487 11.236 3.49V4.361H12.748V9.462H12.749Z" fill="#AFC1D1"/>
</g>
<defs>
<clipPath id="clip0_1_234">
<rect width="20.001" height="12.591" fill="white"/>
</clipPath>
</defs>
</svg>
