<svg width="29" height="20" viewBox="0 0 29 20" fill="none" xmlns="http://www.w3.org/2000/svg">
<rect x="3" y="6" width="1" height="1" rx="0.5" fill="#AFC1D1"/>
<rect x="5" y="6" width="1" height="1" rx="0.5" fill="#AFC1D1"/>
<rect x="7" y="6" width="1" height="1" rx="0.5" fill="#AFC1D1"/>
<rect x="9" y="6" width="1" height="1" rx="0.5" fill="#AFC1D1"/>
<rect x="11" y="6" width="1" height="1" rx="0.5" fill="#AFC1D1"/>
<rect x="13" y="6" width="1" height="1" rx="0.5" fill="#AFC1D1"/>
<rect x="15" y="6" width="1" height="1" rx="0.5" fill="#AFC1D1"/>
<rect x="17" y="6" width="1" height="1" rx="0.5" fill="#AFC1D1"/>
<rect x="19" y="6" width="1" height="1" rx="0.5" fill="#AFC1D1"/>
<rect x="21" y="6" width="1" height="1" rx="0.5" fill="#AFC1D1"/>
<rect x="23" y="6" width="1" height="1" rx="0.5" fill="#AFC1D1"/>
<rect x="25" y="6" width="1" height="1" rx="0.5" fill="#AFC1D1"/>
<rect x="3" y="8" width="1" height="1" rx="0.5" fill="#AFC1D1"/>
<rect x="5" y="8" width="1" height="1" rx="0.5" fill="#AFC1D1"/>
<rect x="7" y="8" width="1" height="1" rx="0.5" fill="#AFC1D1"/>
<rect x="9" y="8" width="1" height="1" rx="0.5" fill="#AFC1D1"/>
<rect x="11" y="8" width="1" height="1" rx="0.5" fill="#AFC1D1"/>
<rect x="13" y="8" width="1" height="1" rx="0.5" fill="#AFC1D1"/>
<rect x="15" y="8" width="1" height="1" rx="0.5" fill="#AFC1D1"/>
<rect x="17" y="8" width="1" height="1" rx="0.5" fill="#AFC1D1"/>
<rect x="19" y="8" width="1" height="1" rx="0.5" fill="#AFC1D1"/>
<rect x="21" y="8" width="1" height="1" rx="0.5" fill="#AFC1D1"/>
<rect x="23" y="8" width="1" height="1" rx="0.5" fill="#AFC1D1"/>
<rect x="25" y="8" width="1" height="1" rx="0.5" fill="#AFC1D1"/>
<rect x="3" y="10" width="1" height="1" rx="0.5" fill="#AFC1D1"/>
<rect x="5" y="10" width="1" height="1" rx="0.5" fill="#AFC1D1"/>
<rect x="7" y="10" width="1" height="1" rx="0.5" fill="#AFC1D1"/>
<rect x="9" y="10" width="1" height="1" rx="0.5" fill="#AFC1D1"/>
<rect x="11" y="10" width="1" height="1" rx="0.5" fill="#AFC1D1"/>
<rect x="13" y="10" width="1" height="1" rx="0.5" fill="#AFC1D1"/>
<rect x="15" y="10" width="1" height="1" rx="0.5" fill="#AFC1D1"/>
<rect x="17" y="10" width="1" height="1" rx="0.5" fill="#AFC1D1"/>
<rect x="19" y="10" width="1" height="1" rx="0.5" fill="#AFC1D1"/>
<rect x="21" y="10" width="1" height="1" rx="0.5" fill="#AFC1D1"/>
<rect x="23" y="10" width="1" height="1" rx="0.5" fill="#AFC1D1"/>
<rect x="25" y="10" width="1" height="1" rx="0.5" fill="#AFC1D1"/>
<rect x="3" y="12" width="1" height="1" rx="0.5" fill="#AFC1D1"/>
<rect x="5" y="12" width="1" height="1" rx="0.5" fill="#AFC1D1"/>
<rect x="7" y="12" width="1" height="1" rx="0.5" fill="#AFC1D1"/>
<rect x="9" y="12" width="1" height="1" rx="0.5" fill="#AFC1D1"/>
<rect x="11" y="12" width="1" height="1" rx="0.5" fill="#AFC1D1"/>
<rect x="13" y="12" width="1" height="1" rx="0.5" fill="#AFC1D1"/>
<rect x="15" y="12" width="1" height="1" rx="0.5" fill="#AFC1D1"/>
<rect x="17" y="12" width="1" height="1" rx="0.5" fill="#AFC1D1"/>
<rect x="19" y="12" width="1" height="1" rx="0.5" fill="#AFC1D1"/>
<rect x="21" y="12" width="1" height="1" rx="0.5" fill="#AFC1D1"/>
<rect x="23" y="12" width="1" height="1" rx="0.5" fill="#AFC1D1"/>
<rect x="25" y="12" width="1" height="1" rx="0.5" fill="#AFC1D1"/>
<rect x="3" y="14" width="1" height="1" rx="0.5" fill="#AFC1D1"/>
<rect x="5" y="14" width="1" height="1" rx="0.5" fill="#AFC1D1"/>
<rect x="7" y="14" width="1" height="1" rx="0.5" fill="#AFC1D1"/>
<rect x="9" y="14" width="1" height="1" rx="0.5" fill="#AFC1D1"/>
<rect x="11" y="14" width="1" height="1" rx="0.5" fill="#AFC1D1"/>
<rect x="13" y="14" width="1" height="1" rx="0.5" fill="#AFC1D1"/>
<rect x="15" y="14" width="1" height="1" rx="0.5" fill="#AFC1D1"/>
<rect x="17" y="14" width="1" height="1" rx="0.5" fill="#AFC1D1"/>
<rect x="19" y="14" width="1" height="1" rx="0.5" fill="#AFC1D1"/>
<rect x="21" y="14" width="1" height="1" rx="0.5" fill="#AFC1D1"/>
<rect x="23" y="14" width="1" height="1" rx="0.5" fill="#AFC1D1"/>
<rect x="25" y="14" width="1" height="1" rx="0.5" fill="#AFC1D1"/>
<rect x="3" y="16" width="1" height="1" rx="0.5" fill="#AFC1D1"/>
<rect x="5" y="16" width="1" height="1" rx="0.5" fill="#AFC1D1"/>
<rect x="7" y="16" width="1" height="1" rx="0.5" fill="#AFC1D1"/>
<rect x="9" y="16" width="1" height="1" rx="0.5" fill="#AFC1D1"/>
<rect x="11" y="16" width="1" height="1" rx="0.5" fill="#AFC1D1"/>
<rect x="13" y="16" width="1" height="1" rx="0.5" fill="#AFC1D1"/>
<rect x="15" y="16" width="1" height="1" rx="0.5" fill="#AFC1D1"/>
<rect x="17" y="16" width="1" height="1" rx="0.5" fill="#AFC1D1"/>
<rect x="19" y="16" width="1" height="1" rx="0.5" fill="#AFC1D1"/>
<rect x="21" y="16" width="1" height="1" rx="0.5" fill="#AFC1D1"/>
<rect x="23" y="16" width="1" height="1" rx="0.5" fill="#AFC1D1"/>
<rect x="25" y="16" width="1" height="1" rx="0.5" fill="#AFC1D1"/>
<rect x="0.5" y="0.5" width="28" height="19" rx="1.5" stroke="#AFC1D1"/>
</svg>
