<svg width="32" height="32" viewBox="0 0 32 32" fill="none" xmlns="http://www.w3.org/2000/svg">
<circle cx="16" cy="16" r="12" fill="#AFC1D1"/>
<path d="M8.01136 22V10.3636H12.6023C13.4811 10.3636 14.2311 10.5208 14.8523 10.8352C15.4773 11.1458 15.9527 11.5871 16.2784 12.1591C16.608 12.7273 16.7727 13.3958 16.7727 14.1648C16.7727 14.9375 16.6061 15.6023 16.2727 16.1591C15.9394 16.7121 15.4564 17.1364 14.8239 17.4318C14.1951 17.7273 13.4337 17.875 12.5398 17.875H9.46591V15.8977H12.142C12.6117 15.8977 13.0019 15.8333 13.3125 15.7045C13.6231 15.5758 13.8542 15.3826 14.0057 15.125C14.161 14.8674 14.2386 14.5473 14.2386 14.1648C14.2386 13.7784 14.161 13.4527 14.0057 13.1875C13.8542 12.9223 13.6212 12.7216 13.3068 12.5852C12.9962 12.4451 12.6042 12.375 12.1307 12.375H10.4716V22H8.01136ZM14.2955 16.7045L17.1875 22H14.4716L11.642 16.7045H14.2955ZM22.4243 22.1591C21.5758 22.1591 20.8202 22.0133 20.1573 21.7216C19.4982 21.4261 18.9773 21.0208 18.5948 20.5057C18.216 19.9867 18.0209 19.3883 18.0095 18.7102H20.4868C20.502 18.9943 20.5948 19.2443 20.7652 19.4602C20.9395 19.6723 21.1705 19.8371 21.4584 19.9545C21.7463 20.072 22.0702 20.1307 22.43 20.1307C22.805 20.1307 23.1364 20.0644 23.4243 19.9318C23.7122 19.7992 23.9376 19.6155 24.1005 19.3807C24.2633 19.1458 24.3448 18.875 24.3448 18.5682C24.3448 18.2576 24.2577 17.983 24.0834 17.7443C23.913 17.5019 23.6667 17.3125 23.3448 17.1761C23.0266 17.0398 22.6478 16.9716 22.2084 16.9716H21.1232V15.1648H22.2084C22.5796 15.1648 22.9073 15.1004 23.1914 14.9716C23.4792 14.8428 23.7027 14.6648 23.8618 14.4375C24.0209 14.2064 24.1005 13.9375 24.1005 13.6307C24.1005 13.339 24.0304 13.0833 23.8902 12.8636C23.7539 12.6402 23.5607 12.4659 23.3107 12.3409C23.0645 12.2159 22.7766 12.1534 22.447 12.1534C22.1137 12.1534 21.8088 12.214 21.5323 12.3352C21.2558 12.4527 21.0342 12.6212 20.8675 12.8409C20.7008 13.0606 20.6118 13.3182 20.6005 13.6136H18.2425C18.2539 12.9432 18.4452 12.3523 18.8164 11.8409C19.1876 11.3295 19.6876 10.9299 20.3164 10.642C20.9489 10.3504 21.663 10.2045 22.4584 10.2045C23.2614 10.2045 23.9641 10.3504 24.5664 10.642C25.1686 10.9337 25.6364 11.3277 25.9698 11.8239C26.3069 12.3163 26.4736 12.8693 26.4698 13.483C26.4736 14.1345 26.2709 14.678 25.8618 15.1136C25.4565 15.5492 24.9281 15.8258 24.2766 15.9432V16.0341C25.1327 16.1439 25.7842 16.4413 26.2311 16.9261C26.6819 17.4072 26.9054 18.0095 26.9016 18.733C26.9054 19.3958 26.7141 19.9848 26.3277 20.5C25.9452 21.0152 25.4167 21.4205 24.7425 21.7159C24.0683 22.0114 23.2955 22.1591 22.4243 22.1591Z" fill="#1C1F2A"/>
<circle cx="16" cy="16" r="15.5" stroke="#AFC1D1"/>
</svg>
