<svg width="32" height="22" viewBox="0 0 32 22" fill="none" xmlns="http://www.w3.org/2000/svg">
<path d="M0 3C0 1.34315 1.34315 0 3 0H29C30.6569 0 32 1.34315 32 3V12V19C32 20.6569 30.6569 22 29 22H3C1.34315 22 0 20.6569 0 19V12V3Z" fill="#AFC1D1"/>
<path d="M7.01136 17V5.36364H11.6023C12.4811 5.36364 13.2311 5.52083 13.8523 5.83523C14.4773 6.14583 14.9527 6.58712 15.2784 7.15909C15.608 7.72727 15.7727 8.39583 15.7727 9.16477C15.7727 9.9375 15.6061 10.6023 15.2727 11.1591C14.9394 11.7121 14.4564 12.1364 13.8239 12.4318C13.1951 12.7273 12.4337 12.875 11.5398 12.875H8.46591V10.8977H11.142C11.6117 10.8977 12.0019 10.8333 12.3125 10.7045C12.6231 10.5758 12.8542 10.3826 13.0057 10.125C13.161 9.86742 13.2386 9.54735 13.2386 9.16477C13.2386 8.77841 13.161 8.45265 13.0057 8.1875C12.8542 7.92235 12.6212 7.72159 12.3068 7.58523C11.9962 7.44508 11.6042 7.375 11.1307 7.375H9.47159V17H7.01136ZM13.2955 11.7045L16.1875 17H13.4716L10.642 11.7045H13.2955ZM17.4432 17V15.2273L21.5852 11.392C21.9375 11.0511 22.233 10.7443 22.4716 10.4716C22.714 10.1989 22.8977 9.93182 23.0227 9.67045C23.1477 9.4053 23.2102 9.11932 23.2102 8.8125C23.2102 8.47159 23.1326 8.17803 22.9773 7.93182C22.822 7.68182 22.6098 7.49053 22.3409 7.35795C22.072 7.22159 21.767 7.15341 21.4261 7.15341C21.0701 7.15341 20.7595 7.22538 20.4943 7.36932C20.2292 7.51326 20.0246 7.7197 19.8807 7.98864C19.7367 8.25758 19.6648 8.57765 19.6648 8.94886H17.3295C17.3295 8.1875 17.5019 7.52652 17.8466 6.96591C18.1913 6.4053 18.6742 5.97159 19.2955 5.66477C19.9167 5.35795 20.6326 5.20455 21.4432 5.20455C22.2765 5.20455 23.0019 5.35227 23.6193 5.64773C24.2405 5.93939 24.7235 6.3447 25.0682 6.86364C25.4129 7.38258 25.5852 7.97727 25.5852 8.64773C25.5852 9.08712 25.4981 9.52083 25.3239 9.94886C25.1534 10.3769 24.8485 10.8523 24.4091 11.375C23.9697 11.8939 23.3504 12.517 22.5511 13.2443L20.8523 14.9091V14.9886H25.7386V17H17.4432Z" fill="#1C1F2A"/>
</svg>
