<svg width="32" height="32" viewBox="0 0 32 32" fill="none" xmlns="http://www.w3.org/2000/svg">
<path d="M32 3C32 1.34315 30.6569 0 29 0H8C6.34315 0 5 1.33969 5 2.99655C5 5.1766 5 8.60954 5 13.5C5 23 0 25.5 0 29C0 30.6569 1.34315 32 3 32H20C26.6274 32 32 26.6274 32 20V3Z" fill="#AFC1D1"/>
<path d="M8.86239 22.0005H17.2424V19.7185H11.6301V8.90958H8.86239V22.0005ZM18.9986 22.0005H28.331V19.7377H22.8338V19.6482L24.745 17.7753C27.4361 15.3208 28.1584 14.0935 28.1584 12.6042C28.1584 10.335 26.3047 8.7306 23.4986 8.7306C20.75 8.7306 18.8643 10.3734 18.8707 12.943H21.4979C21.4915 11.6901 22.2841 10.9231 23.4794 10.9231C24.63 10.9231 25.4865 11.639 25.4865 12.7896C25.4865 13.8315 24.8473 14.5474 23.6584 15.6915L18.9986 20.0062V22.0005Z" fill="#1C1F2A"/>
</svg>
