<svg width="32" height="32" viewBox="0 0 32 32" fill="none" xmlns="http://www.w3.org/2000/svg">
<circle cx="16" cy="16" r="12" fill="#AFC1D1"/>
<path d="M8.01136 22H15.4602V19.9716H10.4716V10.3636H8.01136V22ZM21.0024 22.1591C23.6161 22.1591 25.4854 20.7216 25.4797 18.733C25.4854 17.2841 24.5649 16.25 22.8547 16.0341V15.9432C24.1559 15.7102 25.0536 14.7898 25.0479 13.483C25.0536 11.6477 23.4456 10.2045 21.0365 10.2045C18.6502 10.2045 16.8547 11.6023 16.8206 13.6136H19.1786C19.207 12.7273 20.0195 12.1534 21.0252 12.1534C22.0195 12.1534 22.6843 12.7557 22.6786 13.6307C22.6843 14.5455 21.9059 15.1648 20.7865 15.1648H19.7013V16.9716H20.7865C22.1047 16.9716 22.9286 17.6307 22.9229 18.5682C22.9286 19.4943 22.1331 20.1307 21.0081 20.1307C19.9229 20.1307 19.1104 19.5625 19.0649 18.7102H16.5877C16.6274 20.7443 18.4456 22.1591 21.0024 22.1591Z" fill="#1C1F2A"/>
<circle cx="16" cy="16" r="15.5" stroke="#AFC1D1"/>
</svg>
