<svg width="32" height="32" viewBox="0 0 32 32" fill="none" xmlns="http://www.w3.org/2000/svg">
<path d="M32 3C32 1.34315 30.6569 0 29 0H8C6.34315 0 5 1.33969 5 2.99655C5 5.1766 5 8.60954 5 13.5C5 23 0 25.5 0 29C0 30.6569 1.34315 32 3 32H20C26.6274 32 32 26.6274 32 20V3Z" fill="#AFC1D1"/>
<path d="M8.06259 22.0005V8.90958H13.2274C14.216 8.90958 15.0597 9.08643 15.7586 9.44012C16.4617 9.78955 16.9965 10.286 17.363 10.9295C17.7338 11.5687 17.9191 12.3208 17.9191 13.1859C17.9191 14.0552 17.7316 14.803 17.3566 15.4295C16.9816 16.0516 16.4383 16.5289 15.7267 16.8613C15.0193 17.1937 14.1627 17.3599 13.157 17.3599H9.69895V15.1354H12.7096C13.238 15.1354 13.6769 15.063 14.0264 14.9181C14.3758 14.7732 14.6357 14.5559 14.8062 14.2661C14.9809 13.9763 15.0683 13.6163 15.0683 13.1859C15.0683 12.7512 14.9809 12.3847 14.8062 12.0864C14.6357 11.7881 14.3737 11.5623 14.02 11.4089C13.6705 11.2512 13.2295 11.1724 12.6968 11.1724H10.8303V22.0005H8.06259ZM15.1322 16.0431L18.3857 22.0005H15.3303L12.1471 16.0431H15.1322ZM19.7984 22.0005V20.0062L24.4582 15.6915C24.8545 15.308 25.1869 14.9628 25.4553 14.656C25.7281 14.3492 25.9347 14.0488 26.0754 13.7547C26.216 13.4565 26.2863 13.1347 26.2863 12.7896C26.2863 12.406 26.199 12.0758 26.0242 11.7988C25.8495 11.5175 25.6109 11.3023 25.3083 11.1532C25.0058 10.9998 24.6627 10.9231 24.2792 10.9231C23.8786 10.9231 23.5292 11.004 23.2309 11.166C22.9326 11.3279 22.7025 11.5601 22.5406 11.8627C22.3786 12.1653 22.2977 12.5253 22.2977 12.943H19.6705C19.6705 12.0864 19.8644 11.3428 20.2522 10.7121C20.64 10.0815 21.1833 9.59353 21.8822 9.24836C22.5811 8.90319 23.3865 8.7306 24.2984 8.7306C25.2359 8.7306 26.0519 8.89679 26.7465 9.22918C27.4454 9.55731 27.9887 10.0133 28.3765 10.5971C28.7643 11.1809 28.9582 11.8499 28.9582 12.6042C28.9582 13.0985 28.8602 13.5864 28.6642 14.068C28.4724 14.5495 28.1294 15.0843 27.635 15.6724C27.1407 16.2562 26.444 16.9572 25.5448 17.7753L23.6336 19.6482V19.7377H29.1308V22.0005H19.7984Z" fill="#1C1F2A"/>
</svg>
