<svg width="32" height="30" viewBox="0 0 32 30" fill="none" xmlns="http://www.w3.org/2000/svg">
<path d="M10 0H23L16.5 8.5L10 0Z" fill="#AFC1D1"/>
<path fill-rule="evenodd" clip-rule="evenodd" d="M13.3282 7.125C5.7635 7.8403 0 11.5416 0 16.0001C0 20.9706 7.16344 25.0001 16 25.0001C24.8366 25.0001 32 20.9706 32 16.0001C32 11.731 26.7159 8.15619 19.6259 7.23217L16.5161 11.5001L13.3282 7.125Z" fill="#AFC1D1"/>
<path fill-rule="evenodd" clip-rule="evenodd" d="M23.2876 25.7813C21.1466 26.5561 18.6568 26.9999 16.0001 26.9999C13.3432 26.9999 10.8533 26.556 8.71216 25.7812C10.2336 28.3155 12.9288 30 15.9999 30C19.071 30 21.7661 28.3155 23.2876 25.7813Z" fill="#AFC1D1"/>
<path d="M9.69531 21V13H12.8516C13.4557 13 13.9714 13.1081 14.3984 13.3242C14.8281 13.5378 15.1549 13.8411 15.3789 14.2344C15.6055 14.625 15.7188 15.0846 15.7188 15.6133C15.7188 16.1445 15.6042 16.6016 15.375 16.9844C15.1458 17.3646 14.8138 17.6562 14.3789 17.8594C13.9466 18.0625 13.4232 18.1641 12.8086 18.1641H10.6953V16.8047H12.5352C12.8581 16.8047 13.1263 16.7604 13.3398 16.6719C13.5534 16.5833 13.7122 16.4505 13.8164 16.2734C13.9232 16.0964 13.9766 15.8763 13.9766 15.6133C13.9766 15.3477 13.9232 15.1237 13.8164 14.9414C13.7122 14.7591 13.5521 14.6211 13.3359 14.5273C13.1224 14.431 12.8529 14.3828 12.5273 14.3828H11.3867V21H9.69531ZM14.0156 17.3594L16.0039 21H14.1367L12.1914 17.3594H14.0156ZM19.8242 21.1094C19.2409 21.1094 18.7214 21.0091 18.2656 20.8086C17.8125 20.6055 17.4544 20.3268 17.1914 19.9727C16.931 19.6159 16.7969 19.2044 16.7891 18.7383H18.4922C18.5026 18.9336 18.5664 19.1055 18.6836 19.2539C18.8034 19.3997 18.9622 19.513 19.1602 19.5938C19.3581 19.6745 19.5807 19.7148 19.8281 19.7148C20.0859 19.7148 20.3138 19.6693 20.5117 19.5781C20.7096 19.487 20.8646 19.3607 20.9766 19.1992C21.0885 19.0378 21.1445 18.8516 21.1445 18.6406C21.1445 18.4271 21.0846 18.2383 20.9648 18.0742C20.8477 17.9076 20.6784 17.7773 20.457 17.6836C20.2383 17.5898 19.9779 17.543 19.6758 17.543H18.9297V16.3008H19.6758C19.931 16.3008 20.1563 16.2565 20.3516 16.168C20.5495 16.0794 20.7031 15.957 20.8125 15.8008C20.9219 15.6419 20.9766 15.457 20.9766 15.2461C20.9766 15.0456 20.9284 14.8698 20.832 14.7187C20.7383 14.5651 20.6055 14.4453 20.4336 14.3594C20.2643 14.2734 20.0664 14.2305 19.8398 14.2305C19.6107 14.2305 19.401 14.2721 19.2109 14.3555C19.0208 14.4362 18.8685 14.5521 18.7539 14.7031C18.6393 14.8542 18.5781 15.0312 18.5703 15.2344H16.9492C16.957 14.7734 17.0885 14.3672 17.3438 14.0156C17.599 13.6641 17.9427 13.3893 18.375 13.1914C18.8099 12.9909 19.3008 12.8906 19.8477 12.8906C20.3997 12.8906 20.8828 12.9909 21.2969 13.1914C21.7109 13.3919 22.0326 13.6628 22.2617 14.0039C22.4935 14.3424 22.6081 14.7227 22.6055 15.1445C22.6081 15.5924 22.4688 15.9661 22.1875 16.2656C21.9089 16.5651 21.5456 16.7552 21.0977 16.8359V16.8984C21.6862 16.974 22.1341 17.1784 22.4414 17.5117C22.7513 17.8424 22.9049 18.2565 22.9023 18.7539C22.9049 19.2096 22.7734 19.6146 22.5078 19.9688C22.2448 20.3229 21.8815 20.6016 21.418 20.8047C20.9544 21.0078 20.4232 21.1094 19.8242 21.1094Z" fill="#1C1F2A"/>
</svg>
