<svg width="32" height="30" viewBox="0 0 32 30" fill="none" xmlns="http://www.w3.org/2000/svg">
<path d="M10 0H23L16.5 8.5L10 0Z" fill="#AFC1D1"/>
<path fill-rule="evenodd" clip-rule="evenodd" d="M13.3282 7.125C5.7635 7.8403 0 11.5416 0 16.0001C0 20.9706 7.16344 25.0001 16 25.0001C24.8366 25.0001 32 20.9706 32 16.0001C32 11.731 26.7159 8.15619 19.6259 7.23217L16.5161 11.5001L13.3282 7.125Z" fill="#AFC1D1"/>
<path fill-rule="evenodd" clip-rule="evenodd" d="M23.2876 25.7813C21.1466 26.5561 18.6568 26.9999 16.0001 26.9999C13.3432 26.9999 10.8533 26.556 8.71216 25.7812C10.2336 28.3155 12.9288 30 15.9999 30C19.071 30 21.7661 28.3155 23.2876 25.7813Z" fill="#AFC1D1"/>
<path d="M9.69531 21V13H11.3867V19.6055H14.8164V21H9.69531ZM18.8467 21.1094C18.2633 21.1094 17.7438 21.0091 17.2881 20.8086C16.835 20.6055 16.4769 20.3268 16.2139 19.9727C15.9535 19.6159 15.8193 19.2044 15.8115 18.7383H17.5146C17.5251 18.9336 17.5889 19.1055 17.7061 19.2539C17.8258 19.3997 17.9847 19.513 18.1826 19.5938C18.3805 19.6745 18.6032 19.7148 18.8506 19.7148C19.1084 19.7148 19.3363 19.6693 19.5342 19.5781C19.7321 19.487 19.887 19.3607 19.999 19.1992C20.111 19.0378 20.167 18.8516 20.167 18.6406C20.167 18.4271 20.1071 18.2383 19.9873 18.0742C19.8701 17.9076 19.7008 17.7773 19.4795 17.6836C19.2607 17.5898 19.0003 17.543 18.6982 17.543H17.9521V16.3008H18.6982C18.9535 16.3008 19.1787 16.2565 19.374 16.168C19.5719 16.0794 19.7256 15.957 19.835 15.8008C19.9443 15.6419 19.999 15.457 19.999 15.2461C19.999 15.0456 19.9508 14.8698 19.8545 14.7187C19.7607 14.5651 19.6279 14.4453 19.4561 14.3594C19.2868 14.2734 19.0889 14.2305 18.8623 14.2305C18.6331 14.2305 18.4235 14.2721 18.2334 14.3555C18.0433 14.4362 17.891 14.5521 17.7764 14.7031C17.6618 14.8542 17.6006 15.0312 17.5928 15.2344H15.9717C15.9795 14.7734 16.111 14.3672 16.3662 14.0156C16.6214 13.6641 16.9652 13.3893 17.3975 13.1914C17.8324 12.9909 18.3232 12.8906 18.8701 12.8906C19.4222 12.8906 19.9053 12.9909 20.3193 13.1914C20.7334 13.3919 21.055 13.6628 21.2842 14.0039C21.516 14.3424 21.6305 14.7227 21.6279 15.1445C21.6305 15.5924 21.4912 15.9661 21.21 16.2656C20.9313 16.5651 20.568 16.7552 20.1201 16.8359V16.8984C20.7087 16.974 21.1566 17.1784 21.4639 17.5117C21.7738 17.8424 21.9274 18.2565 21.9248 18.7539C21.9274 19.2096 21.7959 19.6146 21.5303 19.9688C21.2673 20.3229 20.904 20.6016 20.4404 20.8047C19.9769 21.0078 19.4456 21.1094 18.8467 21.1094Z" fill="#1C1F2A"/>
</svg>
