<svg width="36" height="36" viewBox="0 0 36 36" fill="none" xmlns="http://www.w3.org/2000/svg">
<path d="M8.59872 18H16.9787V15.718H11.3665V4.90909H8.59872V18ZM23.5737 18.179C26.514 18.179 28.617 16.5618 28.6106 14.3246C28.617 12.6946 27.5815 11.5312 25.6575 11.2884V11.1861C27.1213 10.924 28.1312 9.88849 28.1248 8.41832C28.1312 6.35369 26.3223 4.73011 23.612 4.73011C20.9274 4.73011 18.9075 6.30256 18.8691 8.56534H21.5218C21.5538 7.56818 22.4679 6.92259 23.5993 6.92259C24.7179 6.92259 25.4657 7.60014 25.4593 8.58452C25.4657 9.61364 24.59 10.3104 23.3308 10.3104H22.1099V12.343H23.3308C24.8137 12.343 25.7406 13.0845 25.7342 14.1392C25.7406 15.1811 24.8457 15.897 23.5801 15.897C22.3592 15.897 21.4451 15.2578 21.394 14.299H18.6071C18.6518 16.5874 20.6973 18.179 23.5737 18.179Z" fill="#AFC1D1"/>
<path fill-rule="evenodd" clip-rule="evenodd" d="M0 26C0 23.7909 1.79086 22 4 22H32C34.2091 22 36 23.7909 36 26C36 28.2091 34.2091 30 32 30H26V36H10V30H4C1.79086 30 0 28.2091 0 26ZM18 31L10 25H26L18 31Z" fill="#AFC1D1"/>
</svg>
